<svg preserveAspectRatio="none" width="100%" height="100%" overflow="visible" style="display: block;" viewBox="0 0 24.2 24.2001" fill="none" xmlns="http://www.w3.org/2000/svg">
<g id="ai-icon">
<circle id="Ellipse 12" cx="12.1" cy="12.1001" r="12.1" fill="#11405C"/>
<g id="Group 8">
<path id="Ellipse 14" d="M18.9223 12.5961L19.2865 12.3318L18.9223 12.5961ZM17.6534 13.6211L18.0478 13.4043L17.6534 13.6211ZM15.3914 14.8419L15.5912 14.4387L15.3914 14.8419ZM14.6723 14.8731L14.3762 14.5343L14.6723 14.8731ZM13.3902 15.533L13.7179 15.8414L13.3902 15.533ZM12.7055 15.5275L12.3998 15.8578L12.7055 15.5275ZM11.305 15.1787L10.9987 14.8491V14.8491L11.305 15.1787ZM10.4751 16.1627L10.8401 16.4259L10.4751 16.1627ZM8.11853 16.1333L7.9319 16.5428L8.11853 16.1333ZM7.52725 15.5196L7.92988 15.3186L7.52725 15.5196ZM5.17678 13.2434L4.74148 13.1293L5.17678 13.2434ZM6.45814 10.2748L6.01376 10.3457L6.45814 10.2748ZM6.72581 9.51102L6.54405 9.09936L6.72581 9.51102ZM7.58529 9.51641L7.44228 9.94308L7.58529 9.51641ZM11.7021 8.77789L12.0938 8.55644L11.7021 8.77789ZM13.6821 9.62008L13.5096 10.0357L13.6821 9.62008ZM15.1287 9.08758L15.5786 9.09732V9.09732L15.1287 9.08758ZM15.8776 9.36961L15.5243 9.091L15.8776 9.36961ZM17.8877 10.0736L17.4557 10.1994L17.8877 10.0736ZM17.8625 10.9728L17.4328 10.8393L17.8625 10.9728ZM18.9223 12.5961L18.5582 12.8605C18.5757 12.8847 18.5802 12.895 18.5792 12.8927C18.5787 12.8916 18.5657 12.863 18.5645 12.8138C18.5632 12.7581 18.5778 12.6885 18.6214 12.6239C18.6623 12.5633 18.7104 12.5342 18.734 12.5228C18.7686 12.506 18.7637 12.5197 18.6684 12.52C18.5846 12.5203 18.4645 12.5104 18.3022 12.4853L18.2334 12.93L18.1645 13.3747C18.352 13.4037 18.5229 13.4205 18.6714 13.42C18.8084 13.4196 18.977 13.4051 19.1265 13.3327C19.2074 13.2934 19.2983 13.2296 19.3673 13.1275C19.4389 13.0214 19.4669 12.9033 19.4642 12.7924C19.4596 12.5964 19.361 12.4344 19.2865 12.3318L18.9223 12.5961ZM18.2334 12.93L18.3022 12.4853C18.1059 12.4549 17.9147 12.4429 17.7427 12.4665C17.5741 12.4895 17.3678 12.5551 17.2191 12.7323C17.062 12.9195 17.0415 13.1431 17.0686 13.3244C17.0948 13.4992 17.1689 13.6738 17.2591 13.838L17.6534 13.6211L18.0478 13.4043C18.0161 13.3468 17.9943 13.2996 17.9798 13.2621C17.9652 13.224 17.9602 13.2012 17.9588 13.1913C17.9573 13.1815 17.9605 13.1925 17.9552 13.2172C17.9494 13.2447 17.9351 13.2792 17.9085 13.3109C17.8829 13.3414 17.8574 13.3557 17.8466 13.3606C17.8373 13.3648 17.8407 13.3614 17.8647 13.3582C17.8881 13.3549 17.9244 13.3528 17.9763 13.3549C18.0277 13.357 18.0901 13.3632 18.1645 13.3747L18.2334 12.93ZM17.6534 13.6211L17.2591 13.838C17.3313 13.9693 17.3664 14.0532 17.38 14.0985C17.3867 14.1211 17.3828 14.1171 17.3824 14.0944C17.382 14.0732 17.3839 14.0005 17.4361 13.9191C17.4956 13.8263 17.5835 13.7787 17.6547 13.7617C17.6861 13.7542 17.7107 13.7533 17.7247 13.7535C17.739 13.7538 17.7471 13.7553 17.7476 13.7554C17.7483 13.7555 17.7445 13.7548 17.7355 13.7521C17.7267 13.7494 17.7144 13.7451 17.6983 13.7387C17.6657 13.7258 17.6231 13.7063 17.5694 13.6783L17.3612 14.0772L17.1529 14.4761C17.2916 14.5485 17.4402 14.6136 17.5824 14.6401C17.6994 14.6619 18.0119 14.6886 18.1939 14.4047C18.2704 14.2853 18.2839 14.1616 18.2822 14.0763C18.2805 13.9896 18.2625 13.9085 18.2423 13.8409C18.202 13.706 18.132 13.5575 18.0478 13.4043L17.6534 13.6211ZM17.3612 14.0772L17.5694 13.6783C17.4205 13.6006 17.2638 13.5371 17.1071 13.511C16.9489 13.4847 16.7512 13.4909 16.5703 13.6054C16.3862 13.7219 16.2967 13.9014 16.2572 14.0622C16.2189 14.2184 16.219 14.3876 16.2355 14.5514L16.6833 14.5061L17.131 14.4608C17.1256 14.4075 17.1243 14.3655 17.1253 14.3334C17.1264 14.3009 17.1297 14.2831 17.1313 14.2766C17.1329 14.2702 17.1313 14.2807 17.1193 14.2996C17.1131 14.3093 17.1045 14.3208 17.0927 14.3328C17.0809 14.3448 17.0671 14.3561 17.0515 14.3659C17.0361 14.3758 17.0206 14.383 17.0061 14.3881C16.9917 14.3931 16.9795 14.3957 16.9705 14.3969C16.9532 14.3993 16.948 14.3969 16.9594 14.3988C16.9707 14.4007 16.9927 14.4059 17.0268 14.4186C17.0606 14.4312 17.1025 14.4498 17.1529 14.4761L17.3612 14.0772ZM16.6833 14.5061L16.2355 14.5514C16.2476 14.671 16.248 14.7578 16.2424 14.8173C16.2366 14.8801 16.2262 14.8892 16.236 14.8717C16.2516 14.8438 16.2934 14.796 16.3631 14.7742C16.4207 14.7562 16.4501 14.7711 16.4235 14.7634L16.2972 15.1953L16.1709 15.6272C16.3009 15.6652 16.4637 15.6857 16.6318 15.6332C16.812 15.5768 16.9411 15.4544 17.0212 15.3116C17.1589 15.0657 17.1598 14.7461 17.131 14.4608L16.6833 14.5061ZM16.2972 15.1953L16.4235 14.7634C16.1355 14.6792 15.8582 14.571 15.5912 14.4387L15.3914 14.8419L15.1916 15.2451C15.5061 15.4009 15.8327 15.5283 16.1709 15.6272L16.2972 15.1953ZM15.3914 14.8419L15.5912 14.4387C15.4008 14.3443 15.1918 14.2826 14.974 14.2921C14.7473 14.3019 14.5437 14.3878 14.3762 14.5343L14.6723 14.8731L14.9685 15.2119C14.9895 15.1935 15.0001 15.1918 15.0131 15.1912C15.0351 15.1903 15.0913 15.1954 15.1916 15.2451L15.3914 14.8419ZM14.6723 14.8731L14.3762 14.5343C14.2498 14.6448 14.1256 14.6973 13.9975 14.7117L14.0478 15.1588L14.098 15.606C14.4253 15.5693 14.7176 15.4313 14.9685 15.2119L14.6723 14.8731ZM14.0478 15.1588L13.9975 14.7117C13.6323 14.7527 13.3211 14.9498 13.0625 15.2246L13.3902 15.533L13.7179 15.8414C13.8806 15.6685 14.0078 15.6162 14.098 15.606L14.0478 15.1588ZM13.3902 15.533L13.0625 15.2246C13.037 15.2517 13.024 15.2579 13.0257 15.257C13.027 15.2564 13.0315 15.2543 13.0391 15.2525C13.0469 15.2506 13.0556 15.2495 13.0646 15.2495C13.0837 15.2497 13.091 15.2548 13.0825 15.2508C13.0725 15.2459 13.0484 15.2317 13.0112 15.1973L12.7055 15.5275L12.3998 15.8578C12.5672 16.0127 12.7886 16.1474 13.0574 16.1495C13.3359 16.1517 13.5577 16.0116 13.7179 15.8414L13.3902 15.533ZM12.7055 15.5275L13.0112 15.1973C12.7452 14.951 12.4786 14.7528 12.211 14.6136L12.0034 15.0129L11.7958 15.4122C11.9728 15.5042 12.1743 15.649 12.3998 15.8578L12.7055 15.5275ZM12.0034 15.0129L12.211 14.6136C12.0089 14.5086 11.7849 14.476 11.5581 14.5299C11.3423 14.5811 11.1562 14.7027 10.9987 14.8491L11.305 15.1787L11.6114 15.5084C11.6971 15.4287 11.7491 15.4095 11.766 15.4055C11.7731 15.4038 11.7754 15.4043 11.7756 15.4044C11.7761 15.4044 11.7824 15.4052 11.7958 15.4122L12.0034 15.0129ZM11.305 15.1787L10.9987 14.8491C10.7248 15.1037 10.4285 15.458 10.1101 15.8995L10.4751 16.1627L10.8401 16.4259C11.1417 16.0077 11.3986 15.7061 11.6114 15.5084L11.305 15.1787ZM10.4751 16.1627L10.1101 15.8995C10.0447 15.9902 9.99067 16.0504 9.94922 16.0881C9.9065 16.1268 9.89024 16.1297 9.90135 16.126C9.92012 16.1196 9.96046 16.1139 10.0049 16.1291C10.0428 16.1421 10.0503 16.159 10.0333 16.139L9.69009 16.43L9.34684 16.721C9.43659 16.8268 9.55674 16.927 9.71344 16.9806C9.87665 17.0365 10.0418 17.0289 10.1914 16.9779C10.4609 16.8862 10.673 16.6576 10.8401 16.4259L10.4751 16.1627ZM9.69009 16.43L10.0333 16.139C9.88572 15.9649 9.70328 15.8246 9.48163 15.7509C9.25749 15.6764 9.0275 15.6815 8.80652 15.7438L8.9287 16.1769L9.05087 16.61C9.12411 16.5894 9.16812 16.5951 9.19778 16.605C9.22993 16.6157 9.28107 16.6434 9.34684 16.721L9.69009 16.43ZM8.9287 16.1769L8.80652 15.7438C8.60049 15.802 8.44144 15.786 8.30516 15.7238L8.11853 16.1333L7.9319 16.5428C8.28741 16.7048 8.66847 16.7179 9.05087 16.61L8.9287 16.1769ZM8.11853 16.1333L8.30516 15.7238C8.17294 15.6636 8.043 15.5452 7.92988 15.3186L7.52725 15.5196L7.12461 15.7205C7.30807 16.0881 7.57232 16.3789 7.9319 16.5428L8.11853 16.1333ZM7.52725 15.5196L7.92988 15.3186C7.81587 15.0902 7.63918 14.9022 7.39146 14.7992C7.15149 14.6995 6.89342 14.6999 6.64669 14.7512L6.73837 15.1918L6.83005 15.6324C6.96095 15.6051 7.02317 15.6208 7.04615 15.6304C7.0614 15.6367 7.09033 15.6518 7.12461 15.7205L7.52725 15.5196ZM6.73837 15.1918L6.64669 14.7512C6.51716 14.7782 6.47878 14.7556 6.48309 14.7579C6.48539 14.7591 6.48478 14.76 6.48022 14.754C6.47444 14.7463 6.46144 14.7258 6.44811 14.683L6.01845 14.8167L5.5888 14.9505C5.6654 15.1966 5.81402 15.4241 6.06726 15.5561C6.31154 15.6833 6.58196 15.684 6.83005 15.6324L6.73837 15.1918ZM6.01845 14.8167L6.44811 14.683C6.31536 14.2566 6.05967 13.9151 5.68412 13.6824L5.44715 14.065L5.21018 14.4475C5.39172 14.56 5.51691 14.7196 5.5888 14.9505L6.01845 14.8167ZM5.44715 14.065L5.68412 13.6824C5.62177 13.6438 5.60558 13.6123 5.59809 13.5895C5.58801 13.5589 5.57752 13.4894 5.61209 13.3575L5.17678 13.2434L4.74148 13.1293C4.67774 13.3726 4.66316 13.6276 4.74319 13.8709C4.82582 14.122 4.99397 14.3136 5.21018 14.4475L5.44715 14.065ZM5.17678 13.2434L5.61209 13.3575C5.72907 12.911 5.72661 12.4757 5.56332 12.0761L5.14675 12.2463L4.73019 12.4165C4.80356 12.5961 4.82111 12.8254 4.74148 13.1293L5.17678 13.2434ZM5.14675 12.2463L5.56332 12.0761C5.47656 11.8638 5.45105 11.6452 5.4879 11.4112L5.04337 11.3412L4.59885 11.2712C4.53688 11.6648 4.58029 12.0497 4.73019 12.4165L5.14675 12.2463ZM5.04337 11.3412L5.4879 11.4112C5.49139 11.389 5.49619 11.3835 5.4949 11.3854C5.49334 11.3878 5.49419 11.3843 5.50703 11.3768C5.54042 11.3571 5.63362 11.3231 5.83363 11.3242L5.83595 10.8742L5.83826 10.4242C5.55929 10.4227 5.28091 10.4654 5.05011 10.6014C4.7974 10.7503 4.6436 10.987 4.59885 11.2712L5.04337 11.3412ZM5.83595 10.8742L5.83363 11.3242C6.11706 11.3256 6.43367 11.2711 6.66293 11.0503C6.91239 10.8099 6.94748 10.4856 6.90251 10.2038L6.45814 10.2748L6.01376 10.3457C6.0233 10.4055 6.01825 10.4314 6.01758 10.4342C6.01743 10.4349 6.0185 10.4302 6.02268 10.4227C6.02698 10.415 6.03261 10.4078 6.03853 10.4021C6.05073 10.3903 6.05185 10.3964 6.01992 10.4056C5.98659 10.4152 5.92878 10.4246 5.83826 10.4242L5.83595 10.8742ZM6.45814 10.2748L6.90251 10.2038C6.87668 10.0421 6.89111 9.96105 6.90159 9.93114C6.90573 9.91932 6.90787 9.91922 6.90419 9.92323C6.90039 9.92738 6.8991 9.92642 6.90758 9.92268L6.72581 9.51102L6.54405 9.09936C6.30672 9.20415 6.13721 9.39104 6.05224 9.63348C5.9735 9.85816 5.9754 10.1055 6.01376 10.3457L6.45814 10.2748ZM6.72581 9.51102L6.90758 9.92268C7.01883 9.87355 7.18412 9.85655 7.44228 9.94308L7.58529 9.51641L7.7283 9.08973C7.32577 8.95481 6.91806 8.93422 6.54405 9.09936L6.72581 9.51102ZM7.58529 9.51641L7.44228 9.94308C7.80525 10.0647 8.1531 10.1277 8.47044 10.0978L8.42825 9.64978L8.38606 9.20176C8.24016 9.2155 8.02604 9.18953 7.7283 9.08973L7.58529 9.51641ZM8.42825 9.64978L8.47044 10.0978C8.81798 10.0651 9.01726 9.80737 9.12059 9.58235C9.22465 9.35574 9.28261 9.06402 9.31482 8.73865L8.86701 8.69432L8.4192 8.64999C8.39051 8.93978 8.3449 9.11488 8.30271 9.20676C8.25979 9.30023 8.27013 9.21268 8.38606 9.20176L8.42825 9.64978ZM8.86701 8.69432L9.31482 8.73865C9.3431 8.45291 9.39139 8.27779 9.43774 8.18266C9.48114 8.09356 9.48828 8.13758 9.42481 8.14842L9.34904 7.70485L9.27328 7.26127C8.94934 7.3166 8.74591 7.54778 8.62864 7.7885C8.5143 8.0232 8.45181 8.32057 8.4192 8.64999L8.86701 8.69432ZM9.34904 7.70485L9.42481 8.14842C9.40075 8.15253 9.41915 8.13434 9.50236 8.19335C9.58927 8.25499 9.70801 8.37523 9.8541 8.58296L10.2222 8.32409L10.5903 8.06521C10.4147 7.81563 10.2271 7.604 10.023 7.45923C9.81516 7.31182 9.55781 7.21267 9.27328 7.26127L9.34904 7.70485ZM10.2222 8.32409L9.8541 8.58296C10.0236 8.82402 10.2446 9.07076 10.5311 9.15829C10.6943 9.20818 10.8702 9.20324 11.036 9.12858C11.1913 9.05863 11.3043 8.94281 11.3857 8.82803L11.0188 8.56752L10.6519 8.30702C10.6286 8.33975 10.6298 8.32442 10.6665 8.30794C10.686 8.29914 10.7101 8.29267 10.7365 8.29132C10.7624 8.28999 10.7824 8.294 10.7941 8.29758C10.8135 8.30352 10.8009 8.30513 10.757 8.26489C10.7149 8.22626 10.6589 8.16278 10.5903 8.06521L10.2222 8.32409ZM11.0188 8.56752L11.3857 8.82803C11.4146 8.78741 11.4177 8.79814 11.3852 8.81488C11.3665 8.82448 11.339 8.8344 11.3047 8.83766C11.27 8.84094 11.2388 8.83646 11.2143 8.82893C11.17 8.8153 11.1643 8.79738 11.1927 8.82769C11.2192 8.856 11.2594 8.90925 11.3104 8.99935L11.7021 8.77789L12.0938 8.55644C12.0217 8.4289 11.9412 8.31016 11.8493 8.21212C11.7592 8.11609 11.6373 8.01746 11.4791 7.96877C11.306 7.91546 11.129 7.93457 10.9735 8.01456C10.8316 8.08753 10.7278 8.20012 10.6519 8.30702L11.0188 8.56752ZM11.7021 8.77789L11.3104 8.99935C11.3859 9.13298 11.4855 9.27263 11.6212 9.37213C11.7726 9.48307 11.9772 9.54666 12.1991 9.48218C12.3931 9.4258 12.5284 9.29096 12.6177 9.17472C12.7114 9.0528 12.7914 8.90288 12.8621 8.7401L12.4494 8.56072L12.0367 8.38133C11.9814 8.50858 11.9357 8.58523 11.904 8.62643C11.8889 8.64612 11.8824 8.65051 11.8864 8.64732C11.8908 8.64384 11.9112 8.62861 11.9479 8.61793C11.9875 8.60643 12.0327 8.60422 12.0767 8.61387C12.1182 8.62298 12.1439 8.63935 12.1532 8.64619C12.1618 8.65247 12.1586 8.65211 12.1458 8.63611C12.1334 8.62055 12.1157 8.59511 12.0938 8.55644L11.7021 8.77789ZM12.4494 8.56072L12.8621 8.7401C12.8891 8.67811 12.9133 8.62921 12.9345 8.59164C12.956 8.55336 12.9714 8.53216 12.9792 8.52261C12.9882 8.51176 12.9802 8.52479 12.9519 8.54195C12.9202 8.56117 12.8602 8.58676 12.7802 8.58295C12.6997 8.57911 12.6413 8.54757 12.61 8.52388C12.5822 8.50285 12.5747 8.48771 12.5818 8.49849C12.5879 8.50785 12.6004 8.52965 12.6171 8.56935C12.6336 8.60828 12.6518 8.65885 12.6713 8.72284L13.1018 8.59185L13.5323 8.46086C13.4818 8.29461 13.419 8.13421 13.3347 8.0054C13.2589 7.88963 13.0967 7.69703 12.8231 7.68397C12.552 7.67103 12.372 7.84436 12.2848 7.95015C12.187 8.06874 12.1064 8.22104 12.0367 8.38133L12.4494 8.56072ZM13.1018 8.59185L12.6713 8.72284C12.7673 9.03843 12.8727 9.30905 12.9921 9.52069C13.1039 9.71884 13.2662 9.93472 13.5096 10.0357L13.6821 9.62008L13.8546 9.20445C13.8939 9.22077 13.8575 9.22294 13.7759 9.07835C13.7019 8.94725 13.6191 8.74609 13.5323 8.46086L13.1018 8.59185ZM13.6821 9.62008L13.5096 10.0357C13.8811 10.1898 14.2008 9.95755 14.3658 9.80254C14.5591 9.62095 14.7558 9.34912 14.9569 9.0173L14.5722 8.78398L14.1874 8.55067C13.9992 8.86092 13.8529 9.04947 13.7496 9.14658C13.698 9.19505 13.6782 9.20041 13.6899 9.19585C13.7107 9.18779 13.7764 9.17202 13.8546 9.20445L13.6821 9.62008ZM14.5722 8.78398L14.9569 9.0173C15.0005 8.94543 15.0382 8.88903 15.07 8.8461C15.1027 8.80204 15.1242 8.77902 15.1343 8.76953C15.1481 8.75654 15.1283 8.78013 15.0758 8.79891C15.0464 8.80943 15.0026 8.81985 14.9484 8.81772C14.8923 8.81551 14.837 8.80022 14.7878 8.77337C14.6943 8.72238 14.6604 8.65187 14.6559 8.64215C14.6496 8.62887 14.6544 8.63401 14.6611 8.67196C14.6744 8.7472 14.6832 8.87764 14.6788 9.07784L15.1287 9.08758L15.5786 9.09732C15.5834 8.87529 15.5758 8.67641 15.5473 8.51523C15.5331 8.43497 15.5106 8.34512 15.4707 8.26009C15.4325 8.17862 15.3586 8.05958 15.2188 7.98328C15.0616 7.89754 14.8981 7.90662 14.7726 7.95153C14.6609 7.99147 14.5756 8.05943 14.5176 8.11406C14.4003 8.22437 14.2904 8.38069 14.1874 8.55067L14.5722 8.78398ZM15.1287 9.08758L14.6788 9.07784C14.6739 9.30375 14.6854 9.51393 14.7283 9.68794C14.7648 9.83611 14.8609 10.1061 15.1436 10.2126C15.4311 10.3208 15.6817 10.1751 15.8058 10.0842C15.9502 9.97828 16.0924 9.82405 16.231 9.64822L15.8776 9.36961L15.5243 9.091C15.4662 9.16459 15.4154 9.22326 15.3717 9.26879C15.3273 9.31499 15.2947 9.3429 15.2736 9.35832C15.2635 9.36574 15.2585 9.36845 15.2585 9.36844C15.2587 9.36837 15.2605 9.36737 15.2641 9.36588C15.2676 9.36438 15.2733 9.36223 15.2808 9.35999C15.2958 9.35555 15.3204 9.35026 15.3525 9.35028C15.3855 9.3503 15.4228 9.35599 15.4608 9.37032C15.4988 9.38461 15.5299 9.40463 15.5537 9.42534C15.5769 9.44547 15.5911 9.46435 15.5987 9.47614C15.6063 9.48779 15.6088 9.49456 15.6083 9.49325C15.6078 9.49209 15.6054 9.48568 15.6022 9.47252C15.5954 9.44527 15.588 9.40116 15.5832 9.33581C15.5784 9.27134 15.5766 9.19231 15.5786 9.09732L15.1287 9.08758ZM15.8776 9.36961L16.231 9.64822C16.3531 9.49341 16.4537 9.38097 16.5337 9.3046C16.6205 9.22178 16.6565 9.20731 16.6474 9.21091C16.6387 9.21432 16.5989 9.22861 16.5382 9.22285C16.4701 9.21639 16.4053 9.18724 16.3563 9.14315C16.2786 9.07325 16.2891 9.01229 16.3005 9.09235L16.746 9.02868L17.1915 8.96501C17.1722 8.83049 17.1236 8.62279 16.9581 8.47401C16.7464 8.28353 16.4901 8.30575 16.3184 8.37316C16.1645 8.43359 16.0273 8.54379 15.9124 8.65349C15.7906 8.76965 15.661 8.91758 15.5243 9.091L15.8776 9.36961ZM16.746 9.02868L16.3005 9.09235C16.3373 9.34983 16.419 9.60774 16.5926 9.80559C16.7825 10.0221 17.0393 10.1179 17.3117 10.1117L17.3014 9.66179L17.291 9.2119C17.2665 9.21247 17.2604 9.2085 17.2646 9.21025C17.27 9.2125 17.2721 9.21552 17.2691 9.21208C17.2576 9.19889 17.216 9.13669 17.1915 8.96501L16.746 9.02868ZM17.3014 9.66179L17.3117 10.1117C17.355 10.1107 17.383 10.115 17.3993 10.1193C17.4147 10.1232 17.4203 10.1271 17.421 10.1277C17.4215 10.128 17.4245 10.1299 17.4298 10.1379C17.4356 10.1468 17.4458 10.1654 17.4557 10.1994L17.8877 10.0736L18.3198 9.94785C18.2569 9.7319 18.1374 9.53105 17.9383 9.39118C17.7416 9.25301 17.5133 9.2068 17.291 9.2119L17.3014 9.66179ZM17.8877 10.0736L17.4557 10.1994C17.5097 10.3852 17.509 10.5941 17.4328 10.8393L17.8625 10.9728L18.2922 11.1064C18.4136 10.7159 18.4297 10.3254 18.3198 9.94785L17.8877 10.0736ZM17.8625 10.9728L17.4328 10.8393C17.387 10.9865 17.3731 11.1554 17.4282 11.3265C17.4835 11.498 17.5937 11.6272 17.7181 11.7199C17.9482 11.8912 18.2697 11.9703 18.6021 12.0106L18.6563 11.5639L18.7105 11.1171C18.5712 11.1002 18.4644 11.078 18.3852 11.0538C18.3041 11.029 18.2671 11.0066 18.2556 10.998C18.2478 10.9922 18.2711 11.0078 18.2849 11.0506C18.2986 11.093 18.2886 11.118 18.2922 11.1064L17.8625 10.9728ZM18.6563 11.5639L18.6021 12.0106C18.7508 12.0286 18.8585 12.0472 18.9311 12.0646C18.9672 12.0733 18.9879 12.0801 18.9971 12.0836C19.0099 12.0885 18.9903 12.0831 18.9594 12.0594C18.9316 12.038 18.8438 11.9623 18.8197 11.8192C18.7935 11.6637 18.8617 11.551 18.9 11.5043C18.9347 11.462 18.9647 11.4464 18.9576 11.4506C18.955 11.4522 18.9412 11.4598 18.9106 11.4722L19.0802 11.889L19.2498 12.3058C19.3367 12.2705 19.4913 12.2026 19.596 12.075C19.6598 11.9971 19.7383 11.8544 19.7072 11.6697C19.6782 11.4976 19.5704 11.3937 19.5072 11.3453C19.3901 11.2555 19.2416 11.2136 19.1411 11.1895C19.0213 11.1607 18.8758 11.1372 18.7105 11.1171L18.6563 11.5639ZM19.0802 11.889L18.9106 11.4722C18.6785 11.5667 18.4156 11.7456 18.3425 12.0732C18.2736 12.3816 18.4126 12.6599 18.5582 12.8605L18.9223 12.5961L19.2865 12.3318C19.2661 12.3036 19.2515 12.2802 19.2413 12.2615C19.2311 12.2428 19.2263 12.2305 19.2243 12.2244C19.2223 12.2184 19.2236 12.2201 19.2243 12.2285C19.225 12.2374 19.2248 12.2516 19.2209 12.2693C19.2169 12.2871 19.2101 12.3035 19.2021 12.317C19.1943 12.3302 19.1873 12.3373 19.1852 12.3393C19.1833 12.3411 19.1862 12.338 19.197 12.3314C19.2078 12.3249 19.2248 12.316 19.2498 12.3058L19.0802 11.889Z" fill="#0ABADA"/>
<path id="Ellipse 15" d="M12.5963 5.27761L12.3319 4.91345L12.5963 5.27761ZM13.6213 6.54652L13.4045 6.15219L13.6213 6.54652ZM14.842 8.80854L14.4388 8.60876L14.842 8.80854ZM14.8733 9.52763L14.5345 9.82379L14.8733 9.52763ZM15.5331 10.8098L15.8415 10.4821L15.5331 10.8098ZM15.5277 11.4944L15.8579 11.8001L15.5277 11.4944ZM15.1789 12.8949L14.8493 13.2013V13.2013L15.1789 12.8949ZM16.1629 13.7248L16.4261 13.3598L16.1629 13.7248ZM16.1334 16.0814L16.5429 16.268L16.1334 16.0814ZM15.5197 16.6727L15.3187 16.2701L15.5197 16.6727ZM13.2435 19.0232L13.1295 19.4585L13.2435 19.0232ZM10.2749 17.7418L10.3459 18.1862L10.2749 17.7418ZM9.51115 17.4741L9.09949 17.6559L9.51115 17.4741ZM9.51654 16.6147L9.94321 16.7577L9.51654 16.6147ZM8.77803 12.4978L8.55657 12.1061L8.77803 12.4978ZM9.62021 10.5178L10.0358 10.6903L9.62021 10.5178ZM9.08772 9.07123L9.09746 8.62134V8.62134L9.08772 9.07123ZM9.36974 8.32231L9.09113 8.67569L9.36974 8.32231ZM10.0738 6.31222L10.1995 6.74428L10.0738 6.31222ZM10.973 6.33742L10.8394 6.76714L10.973 6.33742ZM12.5963 5.27761L12.8606 5.64178C12.8848 5.62421 12.8952 5.61973 12.8929 5.62075C12.8917 5.62127 12.8631 5.63428 12.8139 5.63545C12.7582 5.63678 12.6886 5.62218 12.624 5.57858C12.5634 5.53768 12.5343 5.48951 12.5229 5.46597C12.5061 5.43137 12.5198 5.43627 12.5202 5.53153C12.5204 5.61535 12.5105 5.73544 12.4854 5.89775L12.9301 5.96657L13.3748 6.0354C13.4038 5.84797 13.4206 5.67705 13.4202 5.52859C13.4197 5.39157 13.4052 5.22292 13.3328 5.07348C13.2936 4.99254 13.2298 4.90163 13.1276 4.83268C13.0215 4.76103 12.9035 4.73307 12.7925 4.73571C12.5965 4.74037 12.4345 4.83897 12.3319 4.91345L12.5963 5.27761ZM12.9301 5.96657L12.4854 5.89775C12.455 6.09407 12.4431 6.28529 12.4666 6.45726C12.4897 6.62584 12.5552 6.83214 12.7325 6.98088C12.9196 7.13793 13.1432 7.15841 13.3246 7.1313C13.4994 7.10516 13.674 7.03108 13.8381 6.94085L13.6213 6.54652L13.4045 6.15219C13.347 6.18381 13.2998 6.20566 13.2622 6.22011C13.2242 6.23474 13.2013 6.23972 13.1915 6.24119C13.1816 6.24266 13.1926 6.23948 13.2173 6.24471C13.2448 6.25054 13.2793 6.26486 13.311 6.29144C13.3415 6.31707 13.3558 6.34258 13.3607 6.35338C13.3649 6.36265 13.3616 6.35924 13.3583 6.33528C13.3551 6.3118 13.3529 6.27551 13.355 6.22366C13.3571 6.17225 13.3633 6.10985 13.3748 6.0354L12.9301 5.96657ZM13.6213 6.54652L13.8381 6.94085C13.9694 6.86865 14.0533 6.83353 14.0987 6.81997C14.1212 6.81324 14.1172 6.8171 14.0945 6.81756C14.0733 6.81798 14.0007 6.81601 13.9192 6.76382C13.8265 6.70436 13.7788 6.61646 13.7618 6.54524C13.7543 6.51388 13.7534 6.48927 13.7536 6.4752C13.7539 6.46097 13.7554 6.45284 13.7555 6.45234C13.7557 6.45161 13.755 6.45542 13.7522 6.46442C13.7495 6.47328 13.7452 6.48559 13.7389 6.50166C13.7259 6.53424 13.7064 6.57684 13.6784 6.63055L14.0773 6.83877L14.4762 7.047C14.5486 6.90835 14.6137 6.75971 14.6402 6.61753C14.6621 6.50059 14.6888 6.18803 14.4049 6.00608C14.2854 5.92953 14.1618 5.91603 14.0765 5.91774C13.9897 5.91948 13.9086 5.93744 13.841 5.95764C13.7061 5.99794 13.5577 6.06796 13.4045 6.15219L13.6213 6.54652ZM14.0773 6.83877L13.6784 6.63055C13.6007 6.77942 13.5372 6.93614 13.5112 7.09289C13.4849 7.25104 13.4911 7.4487 13.6055 7.62963C13.7221 7.81379 13.9016 7.90328 14.0623 7.94271C14.2185 7.98103 14.3877 7.98098 14.5516 7.9644L14.5063 7.51668L14.461 7.06897C14.4076 7.07436 14.3656 7.07567 14.3335 7.07462C14.301 7.07356 14.2832 7.07022 14.2768 7.06863C14.2703 7.06704 14.2808 7.06864 14.2998 7.08065C14.3095 7.08681 14.321 7.09548 14.3329 7.10723C14.345 7.11906 14.3563 7.13288 14.3661 7.1484C14.3759 7.16389 14.3831 7.17937 14.3882 7.19386C14.3933 7.2082 14.3958 7.22041 14.3971 7.22942C14.3995 7.24674 14.3971 7.25199 14.399 7.24054C14.4009 7.22923 14.406 7.20728 14.4187 7.17313C14.4313 7.13934 14.4499 7.09749 14.4762 7.047L14.0773 6.83877ZM14.5063 7.51668L14.5516 7.9644C14.6712 7.9523 14.7579 7.95195 14.8174 7.9575C14.8803 7.96338 14.8893 7.97377 14.8718 7.96398C14.8439 7.94832 14.7962 7.90654 14.7743 7.83681C14.7563 7.7792 14.7713 7.74988 14.7635 7.77647L15.1954 7.90274L15.6273 8.02901C15.6653 7.89904 15.6859 7.73621 15.6333 7.56816C15.577 7.38798 15.4545 7.2588 15.3117 7.17879C15.0658 7.04106 14.7463 7.0401 14.461 7.06897L14.5063 7.51668ZM15.1954 7.90274L14.7635 7.77647C14.6793 8.06442 14.5711 8.34175 14.4388 8.60876L14.842 8.80854L15.2452 9.00833C15.4011 8.69383 15.5284 8.36728 15.6273 8.02901L15.1954 7.90274ZM14.842 8.80854L14.4388 8.60876C14.3444 8.79919 14.2827 9.00818 14.2922 9.22592C14.3021 9.45266 14.388 9.6562 14.5345 9.82379L14.8733 9.52763L15.2121 9.23147C15.1937 9.21043 15.1919 9.19981 15.1914 9.18685C15.1904 9.16489 15.1955 9.10865 15.2452 9.00833L14.842 8.80854ZM14.8733 9.52763L14.5345 9.82379C14.6449 9.95016 14.6974 10.0743 14.7118 10.2024L15.159 10.1522L15.6062 10.1019C15.5694 9.7746 15.4314 9.48238 15.2121 9.23147L14.8733 9.52763ZM15.159 10.1522L14.7118 10.2024C14.7528 10.5676 14.9499 10.8788 15.2247 11.1375L15.5331 10.8098L15.8415 10.4821C15.6687 10.3194 15.6163 10.1922 15.6062 10.1019L15.159 10.1522ZM15.5331 10.8098L15.2247 11.1375C15.2518 11.1629 15.2581 11.176 15.2572 11.1742C15.2566 11.173 15.2544 11.1684 15.2526 11.1608C15.2507 11.1531 15.2496 11.1443 15.2497 11.1353C15.2498 11.1162 15.255 11.109 15.2509 11.1174C15.2461 11.1274 15.2319 11.1515 15.1974 11.1887L15.5277 11.4944L15.8579 11.8001C16.0128 11.6328 16.1475 11.4114 16.1496 11.1425C16.1519 10.864 16.0117 10.6423 15.8415 10.4821L15.5331 10.8098ZM15.5277 11.4944L15.1974 11.1887C14.9512 11.4548 14.7529 11.7214 14.6138 11.989L15.013 12.1965L15.4123 12.4041C15.5043 12.2271 15.6491 12.0257 15.8579 11.8001L15.5277 11.4944ZM15.013 12.1965L14.6138 11.989C14.5087 12.191 14.4761 12.415 14.53 12.6418C14.5812 12.8577 14.7028 13.0437 14.8493 13.2013L15.1789 12.8949L15.5085 12.5886C15.4288 12.5029 15.4097 12.4509 15.4056 12.4339C15.404 12.4268 15.4045 12.4245 15.4045 12.4243C15.4046 12.4238 15.4053 12.4175 15.4123 12.4041L15.013 12.1965ZM15.1789 12.8949L14.8493 13.2013C15.1038 13.4751 15.4582 13.7715 15.8997 14.0898L16.1629 13.7248L16.4261 13.3598C16.0078 13.0583 15.7062 12.8013 15.5085 12.5886L15.1789 12.8949ZM16.1629 13.7248L15.8997 14.0898C15.9904 14.1553 16.0506 14.2093 16.0882 14.2507C16.127 14.2934 16.1299 14.3097 16.1261 14.2986C16.1197 14.2798 16.114 14.2395 16.1292 14.195C16.1422 14.1571 16.1591 14.1497 16.1391 14.1666L16.4301 14.5099L16.7211 14.8531C16.827 14.7634 16.9271 14.6432 16.9807 14.4865C17.0366 14.3233 17.029 14.1582 16.9781 14.0085C16.8863 13.7391 16.6578 13.5269 16.4261 13.3598L16.1629 13.7248ZM16.4301 14.5099L16.1391 14.1666C15.965 14.3142 15.8247 14.4967 15.751 14.7183C15.6766 14.9424 15.6816 15.1724 15.744 15.3934L16.1771 15.2712L16.6102 15.1491C16.5895 15.0758 16.5953 15.0318 16.6051 15.0022C16.6158 14.97 16.6435 14.9189 16.7211 14.8531L16.4301 14.5099ZM16.1771 15.2712L15.744 15.3934C15.8021 15.5995 15.7861 15.7585 15.724 15.8948L16.1334 16.0814L16.5429 16.268C16.705 15.9125 16.718 15.5315 16.6102 15.1491L16.1771 15.2712ZM16.1334 16.0814L15.724 15.8948C15.6637 16.027 15.5454 16.1569 15.3187 16.2701L15.5197 16.6727L15.7207 17.0753C16.0882 16.8919 16.379 16.6276 16.5429 16.268L16.1334 16.0814ZM15.5197 16.6727L15.3187 16.2701C15.0903 16.3841 14.9023 16.5608 14.7994 16.8085C14.6997 17.0485 14.7 17.3065 14.7514 17.5533L15.1919 17.4616L15.6325 17.3699C15.6053 17.239 15.6209 17.1768 15.6305 17.1538C15.6368 17.1385 15.652 17.1096 15.7207 17.0753L15.5197 16.6727ZM15.1919 17.4616L14.7514 17.5533C14.7783 17.6828 14.7558 17.7212 14.758 17.7169C14.7592 17.7146 14.7602 17.7152 14.7541 17.7197C14.7465 17.7255 14.7259 17.7385 14.6831 17.7518L14.8169 18.1815L14.9507 18.6111C15.1967 18.5345 15.4243 18.3859 15.5562 18.1327C15.6835 17.8884 15.6841 17.618 15.6325 17.3699L15.1919 17.4616ZM14.8169 18.1815L14.6831 17.7518C14.2567 17.8846 13.9152 18.1403 13.6826 18.5158L14.0651 18.7528L14.4477 18.9898C14.5601 18.8082 14.7198 18.683 14.9507 18.6111L14.8169 18.1815ZM14.0651 18.7528L13.6826 18.5158C13.644 18.5782 13.6124 18.5944 13.5897 18.6019C13.559 18.6119 13.4895 18.6224 13.3576 18.5879L13.2435 19.0232L13.1295 19.4585C13.3727 19.5222 13.6278 19.5368 13.871 19.4568C14.1221 19.3741 14.3137 19.206 14.4477 18.9898L14.0651 18.7528ZM13.2435 19.0232L13.3576 18.5879C12.9112 18.4709 12.4758 18.4733 12.0762 18.6366L12.2464 19.0532L12.4167 19.4698C12.5962 19.3964 12.8256 19.3788 13.1295 19.4585L13.2435 19.0232ZM12.2464 19.0532L12.0762 18.6366C11.8639 18.7234 11.6454 18.7489 11.4113 18.712L11.3413 19.1566L11.2714 19.6011C11.665 19.6631 12.0498 19.6197 12.4167 19.4698L12.2464 19.0532ZM11.3413 19.1566L11.4113 18.712C11.3891 18.7086 11.3836 18.7038 11.3856 18.705C11.3879 18.7066 11.3845 18.7058 11.3769 18.6929C11.3572 18.6595 11.3233 18.5663 11.3243 18.3663L10.8743 18.364L10.4243 18.3617C10.4229 18.6407 10.4655 18.919 10.6015 19.1498C10.7504 19.4025 10.9871 19.5563 11.2714 19.6011L11.3413 19.1566ZM10.8743 18.364L11.3243 18.3663C11.3258 18.0829 11.2712 17.7663 11.0504 17.537C10.8101 17.2876 10.4857 17.2525 10.204 17.2974L10.2749 17.7418L10.3459 18.1862C10.4056 18.1766 10.4315 18.1817 10.4344 18.1824C10.435 18.1825 10.4304 18.1814 10.4229 18.1773C10.4152 18.173 10.4079 18.1673 10.4022 18.1614C10.3905 18.1492 10.3966 18.1481 10.4057 18.18C10.4153 18.2133 10.4248 18.2712 10.4243 18.3617L10.8743 18.364ZM10.2749 17.7418L10.204 17.2974C10.0422 17.3233 9.96118 17.3088 9.93128 17.2984C9.91946 17.2942 9.91935 17.2921 9.92336 17.2958C9.92751 17.2996 9.92655 17.3008 9.92281 17.2924L9.51115 17.4741L9.09949 17.6559C9.20428 17.8932 9.39117 18.0627 9.63361 18.1477C9.85829 18.2264 10.1056 18.2245 10.3459 18.1862L10.2749 17.7418ZM9.51115 17.4741L9.92281 17.2924C9.87368 17.1811 9.85668 17.0158 9.94321 16.7577L9.51654 16.6147L9.08987 16.4716C8.95494 16.8742 8.93435 17.2819 9.09949 17.6559L9.51115 17.4741ZM9.51654 16.6147L9.94321 16.7577C10.0649 16.3947 10.1278 16.0468 10.0979 15.7295L9.64991 15.7717L9.20189 15.8139C9.21563 15.9598 9.18966 16.1739 9.08987 16.4716L9.51654 16.6147ZM9.64991 15.7717L10.0979 15.7295C10.0652 15.382 9.8075 15.1827 9.58248 15.0794C9.35587 14.9753 9.06415 14.9173 8.73878 14.8851L8.69445 15.3329L8.65012 15.7807C8.93991 15.8094 9.11501 15.855 9.20689 15.8972C9.30036 15.9402 9.21281 15.9298 9.20189 15.8139L9.64991 15.7717ZM8.69445 15.3329L8.73878 14.8851C8.45304 14.8568 8.27792 14.8086 8.18279 14.7622C8.09369 14.7188 8.13771 14.7117 8.14855 14.7751L7.70498 14.8509L7.2614 14.9267C7.31673 15.2506 7.54791 15.454 7.78863 15.5713C8.02333 15.6856 8.3207 15.7481 8.65012 15.7807L8.69445 15.3329ZM7.70498 14.8509L8.14855 14.7751C8.15266 14.7992 8.13447 14.7808 8.19348 14.6976C8.25512 14.6107 8.37536 14.4919 8.58309 14.3458L8.32422 13.9778L8.06535 13.6097C7.81576 13.7852 7.60413 13.9728 7.45936 14.1769C7.31196 14.3848 7.2128 14.6421 7.2614 14.9267L7.70498 14.8509ZM8.32422 13.9778L8.58309 14.3458C8.82415 14.1763 9.0709 13.9553 9.15842 13.6689C9.20831 13.5056 9.20337 13.3298 9.12872 13.164C9.05876 13.0086 8.94294 12.8957 8.82816 12.8142L8.56766 13.1811L8.30715 13.5481C8.33989 13.5713 8.32455 13.5701 8.30807 13.5335C8.29927 13.514 8.2928 13.4898 8.29145 13.4635C8.29013 13.4376 8.29413 13.4176 8.29771 13.4059C8.30366 13.3864 8.30527 13.399 8.26502 13.4429C8.22639 13.485 8.16291 13.5411 8.06535 13.6097L8.32422 13.9778ZM8.56766 13.1811L8.82816 12.8142C8.78754 12.7854 8.79827 12.7822 8.81501 12.8148C8.82461 12.8334 8.83453 12.8609 8.83779 12.8953C8.84108 12.9299 8.83659 12.9612 8.82906 12.9856C8.81543 13.0299 8.79751 13.0357 8.82782 13.0072C8.85613 12.9807 8.90938 12.9405 8.99948 12.8896L8.77803 12.4978L8.55657 12.1061C8.42903 12.1782 8.3103 12.2588 8.21225 12.3507C8.11622 12.4407 8.01759 12.5627 7.9689 12.7208C7.91559 12.894 7.9347 13.071 8.01469 13.2264C8.08766 13.3683 8.20026 13.4722 8.30715 13.5481L8.56766 13.1811ZM8.77803 12.4978L8.99948 12.8896C9.13311 12.814 9.27276 12.7145 9.37226 12.5787C9.4832 12.4273 9.54679 12.2228 9.48231 12.0009C9.42593 11.8069 9.2911 11.6715 9.17485 11.5822C9.05294 11.4886 8.90302 11.4086 8.74024 11.3378L8.56085 11.7505L8.38146 12.1632C8.50871 12.2185 8.58536 12.2643 8.62656 12.2959C8.64625 12.311 8.65064 12.3175 8.64745 12.3135C8.64397 12.3092 8.62874 12.2888 8.61806 12.252C8.60656 12.2125 8.60435 12.1672 8.61401 12.1232C8.62311 12.0817 8.63948 12.0561 8.64632 12.0467C8.6526 12.0382 8.65224 12.0413 8.63624 12.0541C8.62068 12.0666 8.59524 12.0842 8.55657 12.1061L8.77803 12.4978ZM8.56085 11.7505L8.74024 11.3378C8.67824 11.3109 8.62934 11.2866 8.59177 11.2655C8.55349 11.2439 8.53229 11.2286 8.52275 11.2207C8.51189 11.2117 8.52492 11.2198 8.54208 11.248C8.56131 11.2797 8.5869 11.3398 8.58308 11.4198C8.57924 11.5002 8.54771 11.5586 8.52401 11.5899C8.50298 11.6177 8.48784 11.6252 8.49862 11.6182C8.50798 11.612 8.52978 11.5996 8.56949 11.5828C8.60841 11.5664 8.65899 11.5481 8.72297 11.5286L8.59198 11.0981L8.46099 10.6676C8.29475 10.7182 8.13434 10.7809 8.00554 10.8653C7.88977 10.9411 7.69716 11.1032 7.6841 11.3769C7.67117 11.6479 7.84449 11.828 7.95028 11.9152C8.06888 12.0129 8.22118 12.0936 8.38146 12.1632L8.56085 11.7505ZM8.59198 11.0981L8.72297 11.5286C9.03856 11.4326 9.30918 11.3273 9.52082 11.2078C9.71897 11.096 9.93485 10.9337 10.0358 10.6903L9.62021 10.5178L9.20458 10.3454C9.2209 10.306 9.22307 10.3424 9.07848 10.424C8.94738 10.498 8.74622 10.5808 8.46099 10.6676L8.59198 11.0981ZM9.62021 10.5178L10.0358 10.6903C10.19 10.3189 9.95768 9.99919 9.80268 9.83418C9.62108 9.64087 9.34925 9.44419 9.01743 9.243L8.78411 9.62779L8.5508 10.0126C8.86105 10.2007 9.04961 10.347 9.14671 10.4504C9.19518 10.502 9.20054 10.5218 9.19599 10.51C9.18792 10.4892 9.17215 10.4235 9.20458 10.3454L9.62021 10.5178ZM8.78411 9.62779L9.01743 9.243C8.94556 9.19942 8.88916 9.16173 8.84624 9.1299C8.80217 9.09721 8.77916 9.07574 8.76966 9.06564C8.75667 9.05184 8.78026 9.07168 8.79904 9.12417C8.80956 9.15357 8.81998 9.19732 8.81785 9.2515C8.81564 9.30764 8.80035 9.36294 8.77351 9.41215C8.72251 9.50563 8.652 9.53953 8.64228 9.54408C8.629 9.55031 8.63414 9.54557 8.67209 9.53885C8.74733 9.52555 8.87777 9.51679 9.07798 9.52112L9.08772 9.07123L9.09746 8.62134C8.87542 8.61653 8.67654 8.6241 8.51536 8.65261C8.4351 8.6668 8.34526 8.68933 8.26022 8.7292C8.17875 8.7674 8.05971 8.8413 7.98342 8.98116C7.89767 9.13835 7.90675 9.30189 7.95166 9.42739C7.9916 9.539 8.05956 9.62432 8.11419 9.68238C8.2245 9.79962 8.38082 9.90951 8.5508 10.0126L8.78411 9.62779ZM9.08772 9.07123L9.07798 9.52112C9.30389 9.52601 9.51406 9.51452 9.68807 9.47162C9.83624 9.4351 10.1062 9.33909 10.2127 9.0563C10.321 8.76885 10.1752 8.51821 10.0843 8.39418C9.97842 8.24976 9.82418 8.10755 9.64835 7.96893L9.36974 8.32231L9.09113 8.67569C9.16472 8.73371 9.22339 8.78453 9.26892 8.82829C9.31512 8.87269 9.34303 8.90527 9.35845 8.92631C9.36587 8.93643 9.36858 8.94141 9.36857 8.9414C9.3685 8.94127 9.3675 8.9394 9.36601 8.93585C9.36451 8.9323 9.36236 8.92669 9.36012 8.91912C9.35568 8.9041 9.35039 8.87954 9.35041 8.84744C9.35043 8.81443 9.35613 8.77716 9.37045 8.73912C9.38474 8.70117 9.40476 8.67006 9.42548 8.64622C9.4456 8.62306 9.46448 8.60887 9.47628 8.60122C9.48792 8.59367 9.4947 8.59116 9.49339 8.59168C9.49222 8.59214 9.48582 8.59454 9.47265 8.59779C9.4454 8.6045 9.4013 8.61191 9.33594 8.61676C9.27148 8.62154 9.19244 8.62339 9.09746 8.62134L9.08772 9.07123ZM9.36974 8.32231L9.64835 7.96893C9.49354 7.84688 9.3811 7.74627 9.30473 7.66624C9.22191 7.57945 9.20744 7.54342 9.21104 7.55259C9.21445 7.56127 9.22874 7.60107 9.22298 7.66171C9.21652 7.72981 9.18737 7.79465 9.14328 7.84367C9.07338 7.92138 9.01242 7.91087 9.09248 7.89943L9.02881 7.45395L8.96514 7.00848C8.83062 7.02771 8.62292 7.07638 8.47414 7.2418C8.28366 7.45357 8.30588 7.70981 8.3733 7.88151C8.43372 8.0354 8.54392 8.17261 8.65362 8.28757C8.76978 8.4093 8.91771 8.53896 9.09113 8.67569L9.36974 8.32231ZM9.02881 7.45395L9.09248 7.89943C9.34997 7.86263 9.60787 7.78095 9.80572 7.60739C10.0222 7.41746 10.1181 7.16066 10.1118 6.88824L9.66192 6.89857L9.21204 6.90891C9.2126 6.93343 9.20864 6.93958 9.21039 6.93534C9.21263 6.92991 9.21565 6.9278 9.21221 6.93082C9.19902 6.94239 9.13682 6.98394 8.96514 7.00848L9.02881 7.45395ZM9.66192 6.89857L10.1118 6.88824C10.1108 6.84493 10.1152 6.81694 10.1194 6.80062C10.1234 6.78522 10.1273 6.77969 10.1278 6.77894C10.1282 6.77842 10.1301 6.77545 10.138 6.77017C10.1469 6.76431 10.1655 6.75418 10.1995 6.74428L10.0738 6.31222L9.94798 5.88015C9.73203 5.94301 9.53118 6.06251 9.39131 6.26165C9.25314 6.45837 9.20693 6.68663 9.21204 6.90891L9.66192 6.89857ZM10.0738 6.31222L10.1995 6.74428C10.3853 6.6902 10.5942 6.69093 10.8394 6.76714L10.973 6.33742L11.1065 5.9077C10.7161 5.78633 10.3255 5.77026 9.94798 5.88015L10.0738 6.31222ZM10.973 6.33742L10.8394 6.76714C10.9867 6.81291 11.1555 6.82682 11.3266 6.7717C11.4982 6.71646 11.6274 6.60625 11.72 6.4818C11.8913 6.25172 11.9704 5.93021 12.0107 5.59782L11.564 5.54361L11.1173 5.4894C11.1004 5.6287 11.0781 5.73558 11.0539 5.81475C11.0291 5.89582 11.0067 5.9328 10.9981 5.94431C10.9923 5.95216 11.0079 5.92883 11.0507 5.91504C11.0931 5.90137 11.1182 5.91131 11.1065 5.9077L10.973 6.33742ZM11.564 5.54361L12.0107 5.59782C12.0288 5.4491 12.0474 5.34144 12.0648 5.26887C12.0734 5.23271 12.0802 5.21205 12.0837 5.20287C12.0887 5.19001 12.0832 5.20963 12.0595 5.24054C12.0381 5.26839 11.9624 5.35613 11.8194 5.38022C11.6638 5.40642 11.5512 5.33821 11.5044 5.29991C11.4621 5.26522 11.4466 5.23527 11.4508 5.24234C11.4523 5.24492 11.4599 5.25875 11.4723 5.28935L11.8892 5.11974L12.306 4.95012C12.2706 4.86321 12.2027 4.70862 12.0751 4.60396C11.9973 4.54014 11.8545 4.46162 11.6698 4.49273C11.4977 4.52172 11.3939 4.62958 11.3454 4.69275C11.2556 4.8098 11.2137 4.95837 11.1896 5.05887C11.1609 5.17861 11.1373 5.32412 11.1173 5.4894L11.564 5.54361ZM11.8892 5.11974L11.4723 5.28935C11.5668 5.52149 11.7457 5.78431 12.0733 5.85745C12.3817 5.92631 12.66 5.78739 12.8606 5.64178L12.5963 5.27761L12.3319 4.91345C12.3037 4.93389 12.2804 4.94846 12.2617 4.95862C12.2429 4.96881 12.2307 4.97361 12.2245 4.97564C12.2185 4.97762 12.2203 4.97635 12.2286 4.97569C12.2375 4.97498 12.2518 4.97514 12.2694 4.97908C12.2873 4.98307 12.3036 4.98985 12.3172 4.99787C12.3303 5.00566 12.3374 5.01266 12.3394 5.01478C12.3412 5.01664 12.3381 5.01376 12.3316 5.00297C12.325 4.99216 12.3161 4.97514 12.306 4.95012L11.8892 5.11974Z" fill="#0ABADA"/>
</g>
</g>
</svg>
