<svg preserveAspectRatio="none" width="100%" height="100%" overflow="visible" style="display: block;" viewBox="0 0 22.0001 22.0001" fill="none" xmlns="http://www.w3.org/2000/svg">
<g id="Group">
<path id="Vector" d="M15.3076 3.3836C14.7176 3.3836 14.4216 3.3836 14.1526 3.2836L14.0416 3.2376C13.7806 3.1176 13.5716 2.9096 13.1536 2.4916C12.1916 1.5296 11.7106 1.0486 11.1196 1.0036C11.0397 0.998799 10.9595 0.998799 10.8796 1.0036C10.2886 1.0486 9.8076 1.5296 8.8456 2.4916C8.4276 2.9096 8.2186 3.1186 7.9576 3.2376L7.8476 3.2836C7.5776 3.3836 7.2826 3.3836 6.6916 3.3836H6.5816C5.0746 3.3836 4.3206 3.3836 3.8516 3.8516C3.3826 4.3196 3.3836 5.0746 3.3836 6.5816V6.6916C3.3836 7.2816 3.3836 7.5776 3.2836 7.8466C3.26894 7.8846 3.2536 7.9216 3.2376 7.9576C3.1176 8.2186 2.9096 8.4276 2.4916 8.8456C1.5296 9.8076 1.0486 10.2886 1.0036 10.8796C0.998799 10.9595 0.998799 11.0397 1.0036 11.1196C1.0486 11.7106 1.5296 12.1916 2.4916 13.1536C2.9096 13.5716 3.1186 13.7806 3.2376 14.0416C3.25427 14.0776 3.2696 14.1143 3.2836 14.1516C3.3836 14.4216 3.3836 14.7166 3.3836 15.3076V15.4176C3.3836 16.9246 3.3836 17.6786 3.8516 18.1476C4.3196 18.6166 5.0746 18.6156 6.5816 18.6156H6.6916C7.2816 18.6156 7.5776 18.6156 7.8466 18.7156C7.8846 18.7296 7.9216 18.7449 7.9576 18.7616C8.2186 18.8816 8.4276 19.0896 8.8456 19.5076C9.8076 20.4696 10.2886 20.9506 10.8796 20.9956C10.9596 21.0016 11.0396 21.0016 11.1196 20.9956C11.7106 20.9506 12.1916 20.4696 13.1536 19.5076C13.5716 19.0896 13.7806 18.8816 14.0416 18.7616C14.0776 18.7449 14.1143 18.7296 14.1516 18.7156C14.4216 18.6156 14.7166 18.6156 15.3076 18.6156H15.4176C16.9246 18.6156 17.6786 18.6156 18.1476 18.1476C18.6166 17.6796 18.6156 16.9246 18.6156 15.4176V15.3076C18.6156 14.7176 18.6156 14.4216 18.7156 14.1526C18.7296 14.1146 18.7449 14.0776 18.7616 14.0416C18.8816 13.7806 19.0896 13.5716 19.5076 13.1536C20.4696 12.1916 20.9506 11.7106 20.9956 11.1196C21.0016 11.0396 21.0016 10.9596 20.9956 10.8796C20.9506 10.2886 20.4696 9.8076 19.5076 8.8456C19.0896 8.4276 18.8816 8.2186 18.7616 7.9576L18.7156 7.8476C18.6156 7.5776 18.6156 7.2826 18.6156 6.6916V6.5816C18.6156 5.0746 18.6156 4.3206 18.1476 3.8516C17.6796 3.3826 16.9246 3.3836 15.4176 3.3836H15.3076Z" stroke="#B3B3B3" stroke-width="2"/>
<path id="Vector_2" d="M14.4996 10.9996C14.4996 11.4592 14.4091 11.9144 14.2332 12.339C14.0573 12.7636 13.7995 13.1495 13.4745 13.4745C13.1495 13.7995 12.7636 14.0573 12.339 14.2332C11.9144 14.4091 11.4592 14.4996 10.9996 14.4996C10.54 14.4996 10.0849 14.4091 9.66021 14.2332C9.23557 14.0573 8.84973 13.7995 8.52473 13.4745C8.19972 13.1495 7.94192 12.7636 7.76602 12.339C7.59013 11.9144 7.4996 11.4592 7.4996 10.9996C7.4996 10.0713 7.86835 9.18111 8.52473 8.52473C9.18111 7.86835 10.0713 7.4996 10.9996 7.4996C11.9279 7.4996 12.8181 7.86835 13.4745 8.52473C14.1309 9.18111 14.4996 10.0713 14.4996 10.9996Z" stroke="#B3B3B3" stroke-width="2"/>
</g>
</svg>
