<svg preserveAspectRatio="none" width="100%" height="100%" overflow="visible" style="display: block;" viewBox="0 0 22 22" fill="none" xmlns="http://www.w3.org/2000/svg">
<g id="Arrow upward">
<g id="Vector">
<mask id="path-1-inside-1_0_10" fill="white">
<path d="M3.66667 11L4.95917 12.2925L10.0833 7.1775V18.3333H11.9167V7.1775L17.0317 12.3017L18.3333 11L11 3.66667L3.66667 11Z"/>
</mask>
<path d="M3.66667 11L4.95917 12.2925L10.0833 7.1775V18.3333H11.9167V7.1775L17.0317 12.3017L18.3333 11L11 3.66667L3.66667 11Z" fill="#E1E1E5"/>
<path d="M3.66667 11L-3.4044 3.92893L-10.4755 11L-3.4044 18.0711L3.66667 11ZM4.95917 12.2925L-2.1119 19.3636L4.95284 26.4283L12.0239 19.3699L4.95917 12.2925ZM10.0833 7.1775H20.0833V-16.9341L3.0186 0.100105L10.0833 7.1775ZM10.0833 18.3333H0.0833342V28.3333H10.0833V18.3333ZM11.9167 18.3333V28.3333H21.9167V18.3333H11.9167ZM11.9167 7.1775L18.9941 0.112766L1.91667 -16.9952V7.1775H11.9167ZM17.0317 12.3017L9.95427 19.3664L17.0253 26.4501L24.1027 19.3727L17.0317 12.3017ZM18.3333 11L25.4044 18.0711L32.4755 11L25.4044 3.92893L18.3333 11ZM11 3.66667L18.0711 -3.4044L11 -10.4755L3.92893 -3.4044L11 3.66667ZM3.66667 11L-3.4044 18.0711L-2.1119 19.3636L4.95917 12.2925L12.0302 5.22143L10.7377 3.92893L3.66667 11ZM4.95917 12.2925L12.0239 19.3699L17.1481 14.2549L10.0833 7.1775L3.0186 0.100105L-2.10557 5.21511L4.95917 12.2925ZM10.0833 7.1775H0.0833342V18.3333H10.0833H20.0833V7.1775H10.0833ZM10.0833 18.3333V28.3333H11.9167V18.3333V8.33333H10.0833V18.3333ZM11.9167 18.3333H21.9167V7.1775H11.9167H1.91667V18.3333H11.9167ZM11.9167 7.1775L4.83927 14.2422L9.95427 19.3664L17.0317 12.3017L24.1091 5.23693L18.9941 0.112766L11.9167 7.1775ZM17.0317 12.3017L24.1027 19.3727L25.4044 18.0711L18.3333 11L11.2623 3.92893L9.9606 5.2306L17.0317 12.3017ZM18.3333 11L25.4044 3.92893L18.0711 -3.4044L11 3.66667L3.92893 10.7377L11.2623 18.0711L18.3333 11ZM11 3.66667L3.92893 -3.4044L-3.4044 3.92893L3.66667 11L10.7377 18.0711L18.0711 10.7377L11 3.66667Z" fill="#E1E1E5" mask="url(#path-1-inside-1_0_10)"/>
</g>
</g>
</svg>
