<svg preserveAspectRatio="none" width="100%" height="100%" overflow="visible" style="display: block;" viewBox="0 0 20 16.0004" fill="none" xmlns="http://www.w3.org/2000/svg">
<path id="Vector" d="M2 2.63314C2.14 2.57648 2.30767 2.51614 2.503 2.45214C3.47252 2.14697 4.48361 1.99448 5.5 2.00014C6.51639 1.99448 7.52748 2.14697 8.497 2.45214C8.69233 2.51614 8.86 2.57648 9 2.63314V13.5131C7.86574 13.1673 6.68582 12.9943 5.5 13.0001C4.04 13.0001 2.851 13.2481 2 13.5131V2.63314ZM10 0.885144C9.71014 0.75726 9.41373 0.644769 9.112 0.548144C7.94375 0.179073 6.72515 -0.00580899 5.5 0.000144133C3.974 0.000144133 2.745 0.271144 1.888 0.548144C1.54689 0.65777 1.21263 0.787668 0.887 0.937144C0.766034 0.993161 0.646967 1.05319 0.53 1.11714L0.505 1.13114L0.496 1.13614L0.493 1.13814C0.491 1.14014 0.245 1.28514 0.49 1.14014C0.340723 1.22865 0.217048 1.35448 0.131136 1.50527C0.0452231 1.65605 3.02676e-05 1.8266 0 2.00014V15.0001C3.07809e-05 15.1766 0.0467776 15.35 0.135492 15.5026C0.224207 15.6552 0.351728 15.7816 0.505101 15.8689C0.658474 15.9563 0.832236 16.0015 1.00873 15.9999C1.18523 15.9984 1.35818 15.9502 1.51 15.8601L1.505 15.8631L1.508 15.8621L1.509 15.8611L1.546 15.8411C1.58333 15.8211 1.644 15.7911 1.728 15.7511C1.898 15.6731 2.158 15.5631 2.503 15.4511C3.47257 15.1463 4.48366 14.9942 5.5 15.0001C6.51634 14.9942 7.52743 15.1463 8.497 15.4511C8.76105 15.5357 9.01984 15.6359 9.272 15.7511C9.34748 15.7861 9.42185 15.8235 9.495 15.8631M9.495 15.8631L9.493 15.8621L9.492 15.8611C9.806 16.0461 10.196 16.0461 10.51 15.8611L10.547 15.8411C10.5843 15.8211 10.645 15.7911 10.729 15.7511C10.9812 15.6359 11.24 15.5357 11.504 15.4511C12.4732 15.1464 13.484 14.9943 14.5 15.0001C15.5163 14.9942 16.5274 15.1463 17.497 15.4511C17.761 15.5357 18.0198 15.6359 18.272 15.7511C18.3461 15.7856 18.4191 15.8222 18.491 15.8611C18.6429 15.951 18.8158 15.999 18.9922 16.0003C19.1687 16.0017 19.3423 15.9564 19.4956 15.8689C19.6488 15.7815 19.7762 15.6551 19.8648 15.5025C19.9534 15.3499 20 15.1766 20 15.0001V2.00014C20 1.8266 19.9548 1.65605 19.8689 1.50527C19.783 1.35448 19.6593 1.22865 19.51 1.14014L19.508 1.13914L19.504 1.13614L19.494 1.13114L19.47 1.11714C19.353 1.05319 19.234 0.993161 19.113 0.937144C18.7877 0.787705 18.4538 0.657807 18.113 0.548144C16.9444 0.17897 15.7255 -0.00591289 14.5 0.000144133C12.975 0.000144133 11.745 0.271144 10.888 0.548144C10.5863 0.644769 10.2899 0.75726 10 0.885144M18 2.63314V13.5131C16.8657 13.1673 15.6858 12.9943 14.5 13.0001C13.04 13.0001 11.851 13.2481 11 13.5131V2.63314C11.14 2.57648 11.3077 2.51614 11.503 2.45214C12.4725 2.14697 13.4836 1.99448 14.5 2.00014C15.5164 1.99448 16.5275 2.14697 17.497 2.45214C17.6923 2.51614 17.86 2.57648 18 2.63314ZM18.49 2.86114L18.495 2.86314H18.494L18.49 2.86114ZM18.491 15.8611L18.494 15.8631L18.492 15.8611" fill="#B3B3B3"/>
</svg>
