<svg preserveAspectRatio="none" width="100%" height="100%" overflow="visible" style="display: block;" viewBox="0 0 90 90" fill="none" xmlns="http://www.w3.org/2000/svg">
<g id="Frame 76">
<rect x="2" y="2" width="86" height="86" rx="43" fill="url(#paint0_linear_0_4)" fill-opacity="0.25"/>
<rect x="2" y="2" width="86" height="86" rx="43" stroke="#00B9D9" stroke-width="4"/>
<path id="Vector" d="M39.427 57.6801C39.1244 57.6801 38.8408 57.6324 38.576 57.5371C38.3113 57.4433 38.0654 57.2829 37.8385 57.056L28.0802 47.2977C27.6642 46.8817 27.4652 46.3423 27.4834 45.6797C27.503 45.0185 27.7209 44.4799 28.1369 44.0639C28.553 43.6478 29.0825 43.4398 29.7255 43.4398C30.3685 43.4398 30.898 43.6478 31.3141 44.0639L39.427 52.1769L58.6599 32.944C59.0759 32.528 59.6153 32.3199 60.2779 32.3199C60.939 32.3199 61.4776 32.528 61.8937 32.944C62.3097 33.3601 62.5178 33.8987 62.5178 34.5598C62.5178 35.2225 62.3097 35.7618 61.8937 36.1779L41.0156 57.056C40.7886 57.2829 40.5428 57.4433 40.278 57.5371C40.0133 57.6324 39.7296 57.6801 39.427 57.6801Z" fill="#00B9D9"/>
</g>
<defs>
<linearGradient id="paint0_linear_0_4" x1="0" y1="45" x2="90" y2="45" gradientUnits="userSpaceOnUse">
<stop stop-color="#A88BFF"/>
<stop offset="1" stop-color="#00B9D9"/>
</linearGradient>
</defs>
</svg>
