<svg preserveAspectRatio="none" width="100%" height="100%" overflow="visible" style="display: block;" viewBox="0 0 27 27" fill="none" xmlns="http://www.w3.org/2000/svg">
<g id="Search" clip-path="url(#clip0_0_11)">
<g id="Vector">
</g>
<path id="Vector_2" d="M17.4375 15.75H16.5488L16.2338 15.4462C17.3363 14.1637 18 12.4988 18 10.6875C18 6.64875 14.7262 3.375 10.6875 3.375C6.64875 3.375 3.375 6.64875 3.375 10.6875C3.375 14.7262 6.64875 18 10.6875 18C12.4988 18 14.1637 17.3363 15.4462 16.2338L15.75 16.5488V17.4375L21.375 23.0512L23.0512 21.375L17.4375 15.75ZM10.6875 15.75C7.88625 15.75 5.625 13.4888 5.625 10.6875C5.625 7.88625 7.88625 5.625 10.6875 5.625C13.4888 5.625 15.75 7.88625 15.75 10.6875C15.75 13.4888 13.4888 15.75 10.6875 15.75Z" fill="#5E5F76"/>
</g>
<defs>
<clipPath id="clip0_0_11">
<rect width="27" height="27" fill="white"/>
</clipPath>
</defs>
</svg>
