<svg preserveAspectRatio="none" width="100%" height="100%" overflow="visible" style="display: block;" viewBox="0 0 55 55" fill="none" xmlns="http://www.w3.org/2000/svg">
<g id="Frame 50">
<rect x="0.5" y="0.5" width="54" height="54" rx="27" fill="#303E5B" fill-opacity="0.2"/>
<rect x="0.5" y="0.5" width="54" height="54" rx="27" stroke="#2C3B52"/>
<path id="Vector" d="M14.3748 31.5298C14.3748 32.2347 14.6178 32.7815 15.104 33.1704C15.5901 33.5593 16.3922 33.8145 17.5103 33.9361C17.8991 33.9847 18.209 34.1609 18.44 34.4647C18.6709 34.7686 18.7742 35.1149 18.7499 35.5038C18.7255 35.917 18.5797 36.2573 18.3123 36.5247C18.045 36.792 17.7169 36.9014 17.328 36.8528C15.3592 36.6097 13.8887 36.0446 12.9164 35.1575C11.9442 34.2703 11.4581 33.0611 11.4581 31.5298C11.4581 29.9499 12.1083 28.6678 13.4086 27.6834C14.709 26.699 16.5137 26.1096 18.8228 25.9151C19.7707 25.8422 20.4817 25.6903 20.9556 25.4594C21.4296 25.2285 21.6666 24.9064 21.6666 24.4932C21.6666 23.9585 21.4114 23.5392 20.9009 23.2354C20.3905 22.9316 19.552 22.6946 18.3853 22.5244C17.9964 22.4758 17.6865 22.2935 17.4556 21.9775C17.2247 21.6616 17.1335 21.3091 17.1821 20.9202C17.2307 20.507 17.4009 20.1728 17.6925 19.9176C17.9842 19.6624 18.3245 19.5591 18.7134 19.6077C20.7308 19.8994 22.2135 20.4402 23.1614 21.2301C24.1093 22.0201 24.5833 23.1078 24.5833 24.4932C24.5833 25.7814 24.1154 26.7901 23.1796 27.5193C22.2438 28.2485 20.8645 28.686 19.0415 28.8318C17.4859 28.9534 16.3193 29.2389 15.5415 29.6886C14.7637 30.1383 14.3748 30.752 14.3748 31.5298ZM30.2344 35.8684L24.2187 29.8527L36.797 17.2743C37.2831 16.7882 37.8604 16.5452 38.5288 16.5452C39.1972 16.5452 39.7745 16.7882 40.2606 17.2743L42.8128 19.8265C43.2989 20.3126 43.5419 20.8899 43.5419 21.5583C43.5419 22.2267 43.2989 22.8039 42.8128 23.2901L30.2344 35.8684ZM23.0885 38.4205C22.6753 38.5177 22.3107 38.4084 21.9947 38.0924C21.6787 37.7764 21.5693 37.4118 21.6666 36.9986L22.7968 31.4933L28.5573 37.2538L23.0885 38.4205Z" fill="#E1E1E5"/>
</g>
</svg>
