<svg preserveAspectRatio="none" width="100%" height="100%" overflow="visible" style="display: block;" viewBox="0 0 51.592 58.6216" fill="none" xmlns="http://www.w3.org/2000/svg">
<path id="Vector" d="M12.5755 58.1949C8.81363 55.8053 5.77723 52.5475 3.46634 48.4215C1.15544 44.2977 0 39.7325 0 34.7258C0 28.2967 1.80035 22.1236 5.40104 16.2065C9.00173 10.2894 13.946 5.11202 20.2337 0.674228C21.416 -0.179194 22.6392 -0.222435 23.9032 0.544507C25.1651 1.31372 25.796 2.46641 25.796 4.00257V8.44037C25.796 10.3748 26.428 11.9963 27.692 13.3049C28.9538 14.6135 30.4984 15.2677 32.3256 15.2677C33.2392 15.2677 34.113 15.055 34.9471 14.6294C35.779 14.2015 36.5174 13.5893 37.1623 12.7928C37.5923 12.2239 38.1437 11.8677 38.8165 11.7243C39.4872 11.5832 40.1181 11.7403 40.7093 12.1954C44.095 14.7557 46.7552 18.0271 48.6899 22.0098C50.6246 25.9924 51.592 30.2311 51.592 34.7258C51.592 39.7325 50.4365 44.2977 48.1256 48.4215C45.8147 52.5475 42.7783 55.8053 39.0164 58.1949C39.93 56.8294 40.6427 55.3353 41.1543 53.7127C41.6638 52.0923 41.9185 50.3718 41.9185 48.5512C41.9185 46.2754 41.5154 44.1282 40.7093 42.1096C39.9032 40.0887 38.7477 38.2817 37.243 36.6886L25.796 24.8261L14.4296 36.6886C12.8711 38.3386 11.6888 40.1592 10.8827 42.1505C10.0766 44.1419 9.6735 46.2754 9.6735 48.5512C9.6735 50.3718 9.92931 52.0923 10.4409 53.7127C10.9504 55.3353 11.6619 56.8294 12.5755 58.1949ZM25.796 58.6216C23.1089 58.6216 20.8249 57.6396 18.9439 55.6756C17.063 53.7138 16.1225 51.339 16.1225 48.5512C16.1225 47.2426 16.3643 45.9773 16.848 44.7552C17.3317 43.5308 18.0303 42.435 18.9439 41.4678L25.796 34.3844L32.648 41.4678C33.5617 42.435 34.2603 43.516 34.744 44.7108C35.2276 45.9056 35.4695 47.1857 35.4695 48.5512C35.4695 51.339 34.529 53.7138 32.648 55.6756C30.7671 57.6396 28.4831 58.6216 25.796 58.6216Z" fill="url(#paint0_linear_0_6)"/>
<defs>
<linearGradient id="paint0_linear_0_6" x1="25.796" y1="58.6216" x2="25.796" y2="-9.69662" gradientUnits="userSpaceOnUse">
<stop stop-color="#A88BFF"/>
<stop offset="1" stop-color="#00B9D9"/>
</linearGradient>
</defs>
</svg>
