<svg preserveAspectRatio="none" width="100%" height="100%" overflow="visible" style="display: block;" viewBox="0 0 12.9922 12.9737" fill="none" xmlns="http://www.w3.org/2000/svg">
<path id="Vector" d="M11.5875 4.38974L8.56622 1.40401L9.56147 0.408762C9.83397 0.136254 10.1688 0 10.566 0C10.9626 0 11.2972 0.136254 11.5697 0.408762L12.565 1.40401C12.8375 1.67651 12.9797 2.00542 12.9915 2.39072C13.0034 2.77555 12.873 3.10422 12.6005 3.37673L11.5875 4.38974ZM0.71089 12.9737C0.509471 12.9737 0.340753 12.9055 0.204736 12.769C0.0682455 12.633 0 12.4643 0 12.2628V10.2546C0 10.1598 0.0177723 10.0681 0.0533168 9.97947C0.0888612 9.89037 0.142178 9.81028 0.213267 9.73919L7.53543 2.41703L10.5567 5.43831L3.23455 12.7605C3.16346 12.8316 3.0836 12.8849 2.99498 12.9204C2.90588 12.956 2.81394 12.9737 2.71915 12.9737H0.71089Z" fill="#A1A1A1"/>
</svg>
