<svg preserveAspectRatio="none" width="100%" height="100%" overflow="visible" style="display: block;" viewBox="0 0 17.7778 16" fill="none" xmlns="http://www.w3.org/2000/svg">
<path id="Vector" d="M8.88889 0C8.88889 0 3.39022 4.74667 0.317333 7.31733C0.21951 7.4025 0.140701 7.50729 0.0860288 7.6249C0.0313569 7.74252 0.00204561 7.87032 0 8C0 8.23575 0.0936505 8.46184 0.26035 8.62854C0.427049 8.79524 0.653141 8.88889 0.888889 8.88889H2.66667V15.1111C2.66667 15.3469 2.76032 15.573 2.92702 15.7397C3.09372 15.9064 3.31981 16 3.55556 16H6.22222C6.45797 16 6.68406 15.9064 6.85076 15.7397C7.01746 15.573 7.11111 15.3469 7.11111 15.1111V11.5556H10.6667V15.1111C10.6667 15.3469 10.7603 15.573 10.927 15.7397C11.0937 15.9064 11.3198 16 11.5556 16H14.2222C14.458 16 14.6841 15.9064 14.8508 15.7397C15.0175 15.573 15.1111 15.3469 15.1111 15.1111V8.88889H16.8889C17.1246 8.88889 17.3507 8.79524 17.5174 8.62854C17.6841 8.46184 17.7778 8.23575 17.7778 8C17.7765 7.86784 17.7452 7.73769 17.6863 7.61942C17.6273 7.50114 17.5422 7.39784 17.4373 7.31733C14.3858 4.74667 8.88889 0 8.88889 0Z" fill="#A88BFF"/>
</svg>
